<?xml version="1.0" encoding="utf-8"?>
<!-- Generator: Adobe Illustrator 18.1.1, SVG Export Plug-In . SVG Version: 6.00 Build 0)  -->
<svg version="1.1" id="Слой_1" xmlns="http://www.w3.org/2000/svg" xmlns:xlink="http://www.w3.org/1999/xlink" x="0px" y="0px"
	 viewBox="0 0 235.3 67.5" enable-background="new 0 0 235.3 67.5" xml:space="preserve">
<path fill="#409147" d="M201.4,24.3c8.6-4.6,10.5-0.1,19.4-0.1C234,24.2,235.3,0,235.3,0v0c-8.8,4.3-12.3,0.5-20.6,0.4
	c-12.7-0.2-14.1,22.5-14.1,22.5L201.4,24.3z"/>
<path fill="#409147" d="M221.9,27l-5.1,27.3l0,0l0,0c-1.6,8.2-7,13.2-14.3,13.2H7.9H0l1.5-7.7l8.6-43.6c1.3-7.7,7.5-13.3,14.7-13.3
	h175.7h2.9l-2.9,6.5H24.8c-4.4,0-7.6,3.6-8.3,8L7.9,61.1h194.6c4.4,0,7-3.1,8-8l5-26.5L221.9,27z"/>
<path fill="#F7941E" d="M32.6,27.7L32.6,27.7c1.2,0,2.6-0.1,2.9-1.7c0.3-1.5-0.9-1.6-2.1-1.6H32l-0.7,3.3H32.6z M29.4,37.5h-5.1
	l3.4-17.1h6.8c1.6,0,3.4,0,4.7,0.9c1.4,0.9,1.9,2.6,1.6,4.5c-0.3,1.6-1.2,3.2-2.6,4.2c-1.5,1.1-3.2,1.3-4.8,1.3h-2.6L29.4,37.5z"/>
<path fill="#F7941E" d="M50,27.3L50,27.3c1.1,0,2.5-0.2,2.8-1.6c0.1-0.6-0.1-1.1-0.5-1.4c-0.4-0.2-0.9-0.2-1.4-0.2h-2.1l-0.7,3.3H50
	z M50.1,37.5L49,31h-1.6l-1.3,6.5H41l3.4-17.1h8.4c1.4,0,3,0.2,4.1,1c1.2,0.9,1.5,2.4,1.2,4.1c-0.4,2.2-1.7,3.6-3.8,4.5l1.5,7.4
	H50.1z"/>
<path fill="#F7941E" d="M64.7,29L64.7,29c-0.3,1.6-0.8,4.8,1.6,4.8c2.3,0,3.1-3.2,3.4-4.8c0.3-1.7,0.7-5-1.5-5
	C65.9,24,65,27.4,64.7,29 M75.1,29c-1,4.9-4.6,8.7-9.6,8.7c-5,0-7.2-3.9-6.2-8.7c1-5.1,4.6-8.8,9.7-8.8C74,20.2,76.1,23.9,75.1,29z"
	/>
<polygon fill="#F7941E" points="82.2,31.1 81,37.5 76,37.5 79.4,20.4 91.4,20.4 90.6,24.5 83.5,24.5 83,27.3 88.4,27.3 87.6,31.1 
	"/>
<polygon fill="#F7941E" points="95.1,37.5 90,37.5 93.4,20.4 98.5,20.4 "/>
<path fill="#409147" d="M108,26.6L108,26.6c0.9-0.4,1.6-0.7,1.9-1.2c0.3-0.4,0.5-0.9,0.5-1.5c0-1-0.2-1.9-0.8-2.6
	c-0.3-0.5-0.8-0.7-1.3-0.7c-0.4,0-0.8,0.2-1.1,0.5c-0.3,0.3-0.5,0.8-0.5,1.4c0,0.5,0.1,0.9,0.2,1.5C107.1,24.5,107.5,25.4,108,26.6
	 M104.8,28.9L104.8,28.9c-0.7,0.3-1.2,0.6-1.5,1c-0.4,0.5-0.6,1.1-0.6,1.7c0,0.9,0.2,1.7,0.7,2.6c0.5,0.9,1.1,1.5,1.8,2
	c0.7,0.5,1.4,0.7,2.1,0.7c0.3,0,0.7-0.1,1.2-0.2c0.4-0.2,0.9-0.4,1.4-0.7C107.5,33.8,105.9,31.4,104.8,28.9z M113.4,27.4h5.6l0,0.5
	c-0.6,0.1-1.1,0.3-1.5,0.6c-0.4,0.3-0.8,1-1.4,2c-0.6,1.1-1.4,2.3-2.5,3.6c0.9,0.9,1.7,1.4,2.2,1.8c0.4,0.2,0.8,0.3,1.2,0.3
	c0.7,0,1.3-0.4,1.8-1.3l0.6,0.3c-0.8,1.5-1.5,2.6-2.4,3.2c-0.6,0.5-1.4,0.7-2.2,0.7c-0.7,0-1.4-0.2-2-0.5c-0.6-0.3-1.4-0.9-2.3-1.7
	c-1.1,0.8-2.2,1.3-3.2,1.7c-1,0.3-2,0.5-3.1,0.5c-1.7,0-3.1-0.5-4.1-1.4c-1-1-1.5-2.1-1.5-3.4c0-1.4,0.5-2.6,1.5-3.6
	c1-1,2.4-1.9,4.2-2.7c-0.2-0.6-0.4-1.2-0.5-1.8c-0.1-0.6-0.2-1.1-0.2-1.7c0-1.5,0.5-2.7,1.5-3.7c1-1,2.3-1.5,3.9-1.5
	c1.3,0,2.3,0.3,3,1c0.7,0.7,1.1,1.4,1.1,2.3c0,1-0.4,1.9-1.2,2.7c-0.8,0.7-2,1.4-3.6,2.1c1,1.8,2.5,3.8,4.4,6c1.3-1.5,2-2.8,2-3.9
	c0-0.4-0.1-0.7-0.4-1c-0.3-0.3-0.6-0.4-1.1-0.5L113.4,27.4z"/>
<polygon fill="#9ACA3C" points="135.1,37.5 130.1,37.5 131.4,30.9 127.5,30.9 126.1,37.5 121.1,37.5 124.4,20.4 129.5,20.4 
	128.3,26.7 132.2,26.7 133.4,20.4 138.5,20.4 "/>
<path fill="#9ACA3C" d="M144.8,29L144.8,29c-0.3,1.6-0.8,4.8,1.6,4.8c2.3,0,3.1-3.2,3.4-4.8c0.3-1.7,0.7-5-1.5-5
	C146,24,145.1,27.4,144.8,29 M155.2,29c-1,4.9-4.6,8.7-9.6,8.7c-5,0-7.2-3.9-6.2-8.7c1-5.1,4.6-8.8,9.7-8.8
	C154,20.2,156.2,23.9,155.2,29z"/>
<path fill="#9ACA3C" d="M164.9,27L164.9,27c0.5,0,1.1,0,1.5-0.3c0.4-0.3,0.6-0.7,0.7-1.1c0.3-1.3-0.7-1.4-1.7-1.4h-2l-0.6,2.9H164.9
	z M163.7,33.7L163.7,33.7c0.5,0,1.1,0,1.5-0.3c0.4-0.3,0.8-0.7,0.9-1.2c0.1-0.6-0.1-1.1-0.5-1.3c-0.4-0.2-1-0.2-1.4-0.2h-2l-0.6,3.1
	H163.7z M159.5,20.4h8.1c1.3,0,2.5,0.1,3.4,0.9c0.9,0.8,1.3,2.2,1,3.6c-0.4,1.8-1.8,3.3-3.5,3.7l0,0c1.8,0.3,2.9,1.8,2.5,3.9
	c-0.3,1.5-1.1,3.1-2.5,4c-1.5,0.9-3.3,1-4.8,1h-7.6L159.5,20.4z"/>
<path fill="#9ACA3C" d="M181.7,27L181.7,27c0.5,0,1.1,0,1.5-0.3c0.4-0.3,0.6-0.7,0.7-1.1c0.3-1.3-0.7-1.4-1.7-1.4h-2l-0.6,2.9H181.7
	z M180.5,33.7L180.5,33.7c0.5,0,1.1,0,1.5-0.3c0.4-0.3,0.8-0.7,0.9-1.2c0.1-0.6-0.1-1.1-0.5-1.3c-0.4-0.2-1-0.2-1.4-0.2h-2l-0.6,3.1
	H180.5z M176.3,20.4h8.1c1.3,0,2.5,0.1,3.4,0.9c0.9,0.8,1.3,2.2,1,3.6c-0.4,1.8-1.8,3.3-3.5,3.7l0,0c1.8,0.3,2.9,1.8,2.5,3.9
	c-0.3,1.5-1.1,3.1-2.5,4c-1.5,0.9-3.3,1-4.8,1h-7.6L176.3,20.4z"/>
<polygon fill="#9ACA3C" points="199.3,30.3 197.8,37.5 192.9,37.5 194.3,30.3 190.7,20.4 196.3,20.4 198.1,26.1 201.9,20.4 
	206.4,20.4 "/>
<polygon fill="#409147" points="22.7,45 23.8,45 23.2,48.5 26.2,45 27.3,45 26.2,50.7 25.1,50.7 25.8,47.1 22.7,50.7 21.6,50.7 "/>
<path fill="#409147" d="M29.4,46.5l-1.1-0.3c0.2-0.5,0.4-0.9,0.8-1.1c0.4-0.2,0.8-0.3,1.3-0.3c0.5,0,1,0.1,1.4,0.4
	c0.4,0.3,0.6,0.6,0.6,1.1c0,0.3-0.1,0.6-0.3,0.9c-0.2,0.3-0.5,0.5-0.9,0.6c0.3,0.1,0.5,0.3,0.7,0.5c0.1,0.2,0.2,0.4,0.2,0.7
	c0,0.5-0.2,0.9-0.6,1.2c-0.4,0.3-1,0.5-1.7,0.5c-1.2,0-2-0.5-2.2-1.4l1.1-0.4c0,0.2,0.2,0.4,0.3,0.6c0.2,0.2,0.4,0.2,0.7,0.2
	c0.3,0,0.6-0.1,0.8-0.2c0.2-0.2,0.3-0.4,0.3-0.7c0-0.2-0.1-0.4-0.3-0.5c-0.2-0.1-0.4-0.2-0.7-0.2c-0.1,0-0.2,0-0.3,0l0.2-1
	c0.1,0,0.3,0,0.4,0c0.3,0,0.5-0.1,0.7-0.2c0.2-0.2,0.3-0.3,0.3-0.6c0-0.2-0.1-0.4-0.2-0.5c-0.2-0.1-0.3-0.2-0.5-0.2
	C29.8,45.9,29.5,46.1,29.4,46.5"/>
<path fill="#409147" d="M37.2,45.9L37.2,45.9h-1.7c-0.3,1.6-0.7,2.8-1.2,3.8h2.2L37.2,45.9z M34.5,45h4l-0.9,4.8h0.5l-0.5,2.5h-1
	l0.3-1.6h-3.7l-0.3,1.6h-1l0.5-2.5H33C33.6,48.7,34.1,47.1,34.5,45z"/>
<polygon fill="#409147" points="38.8,50.7 39.9,45 44.2,45 44,45.9 40.9,45.9 40.7,47.2 43.7,47.2 43.5,48.2 40.5,48.2 40.2,49.8 
	43.5,49.8 43.3,50.7 "/>
<path fill="#409147" d="M45.9,45h4l-1.1,5.7h-1.2l0.9-4.8h-1.6l-0.6,3c-0.1,0.4-0.2,0.7-0.3,1c-0.1,0.3-0.3,0.5-0.5,0.6
	c-0.2,0.1-0.5,0.2-0.8,0.2c-0.2,0-0.5,0-0.8-0.1l0.2-1c0.2,0,0.3,0,0.4,0c0.3,0,0.5-0.3,0.6-0.8c0,0,0-0.1,0-0.1L45.9,45z"/>
<polygon fill="#409147" points="51.3,45 52.4,45 51.7,48.5 54.8,45 55.9,45 54.7,50.7 53.6,50.7 54.3,47.1 51.3,50.7 50.2,50.7 "/>
<path fill="#409147" d="M60.5,45.9L60.5,45.9h-0.9c-0.6,0-1.1,0.1-1.3,0.2c-0.2,0.1-0.3,0.3-0.3,0.6c0,0.2,0.1,0.3,0.2,0.5
	c0.1,0.1,0.4,0.2,0.9,0.2h1.2L60.5,45.9z M61.9,45l-1.1,5.7h-1.2l0.5-2.4l-0.1,0c-0.3,0-0.6,0-0.8,0.1c-0.2,0.1-0.4,0.3-0.7,0.6
	l-1.4,1.7h-1.5l1.6-1.9c0.3-0.4,0.6-0.6,0.8-0.7c-0.4-0.1-0.7-0.2-0.9-0.5c-0.2-0.3-0.3-0.6-0.3-0.9c0-0.5,0.2-0.9,0.5-1.3
	c0.4-0.4,0.9-0.5,1.7-0.5H61.9z"/>
<polygon fill="#409147" points="65.7,45 66.8,45 66.1,48.5 69.1,45 70.2,45 69.1,50.7 68,50.7 68.7,47.1 65.6,50.7 64.5,50.7 "/>
<path fill="#409147" d="M72.3,46.5l-1.1-0.3c0.2-0.5,0.4-0.9,0.8-1.1c0.4-0.2,0.8-0.3,1.3-0.3c0.5,0,1,0.1,1.4,0.4
	c0.4,0.3,0.6,0.6,0.6,1.1c0,0.3-0.1,0.6-0.3,0.9c-0.2,0.3-0.5,0.5-0.9,0.6c0.3,0.1,0.5,0.3,0.7,0.5c0.1,0.2,0.2,0.4,0.2,0.7
	c0,0.5-0.2,0.9-0.6,1.2c-0.4,0.3-1,0.5-1.7,0.5c-1.2,0-2-0.5-2.2-1.4l1.1-0.4c0,0.2,0.2,0.4,0.3,0.6c0.2,0.2,0.4,0.2,0.7,0.2
	c0.3,0,0.6-0.1,0.8-0.2c0.2-0.2,0.3-0.4,0.3-0.7c0-0.2-0.1-0.4-0.3-0.5c-0.2-0.1-0.4-0.2-0.7-0.2c-0.1,0-0.2,0-0.3,0l0.2-1
	c0.1,0,0.3,0,0.4,0c0.3,0,0.5-0.1,0.7-0.2c0.2-0.2,0.3-0.3,0.3-0.6c0-0.2-0.1-0.4-0.2-0.5c-0.2-0.1-0.3-0.2-0.5-0.2
	C72.7,45.9,72.4,46.1,72.3,46.5"/>
<path fill="#409147" d="M82.5,45.9L82.5,45.9h-1.7c-0.3,1.6-0.7,2.8-1.2,3.8h2.2L82.5,45.9z M79.8,45h4l-0.9,4.8h0.5l-0.5,2.5h-1
	l0.3-1.6h-3.7l-0.3,1.6h-1l0.5-2.5h0.5C78.9,48.7,79.4,47.1,79.8,45z"/>
<polygon fill="#409147" points="84.1,50.7 85.3,45 89.5,45 89.3,45.9 86.3,45.9 86,47.2 89,47.2 88.8,48.2 85.8,48.2 85.5,49.8 
	88.8,49.8 88.6,50.7 "/>
<path fill="#409147" d="M91.5,47.6L91.5,47.6h0.4c0.6,0,1,0,1.2-0.1c0.2-0.1,0.4-0.2,0.5-0.4c0.1-0.2,0.2-0.4,0.2-0.6
	c0-0.1,0-0.3-0.1-0.3c-0.1-0.1-0.2-0.2-0.3-0.2c-0.1,0-0.4-0.1-0.7-0.1h-0.8L91.5,47.6z M90.9,50.7h-1.2l1.1-5.7h2.3
	c0.4,0,0.7,0,1,0.1c0.2,0.1,0.4,0.3,0.6,0.5c0.1,0.2,0.2,0.5,0.2,0.8c0,0.3,0,0.6-0.2,0.8s-0.2,0.5-0.4,0.7
	c-0.2,0.2-0.3,0.3-0.5,0.4c-0.2,0.1-0.4,0.1-0.8,0.2c-0.2,0-0.5,0-1,0h-0.8L90.9,50.7z"/>
<polygon fill="#409147" points="95.2,50.7 96.3,45 100.6,45 100.4,45.9 97.3,45.9 97,47.2 100,47.2 99.8,48.2 96.9,48.2 96.5,49.8 
	99.9,49.8 99.7,50.7 "/>
<path fill="#409147" d="M102.6,47.3L102.6,47.3h0.9c0.4,0,0.7,0,0.9-0.1c0.2-0.1,0.3-0.2,0.4-0.3c0.1-0.1,0.1-0.3,0.1-0.4
	c0-0.1,0-0.3-0.1-0.4c-0.1-0.1-0.2-0.2-0.4-0.2c-0.1,0-0.3,0-0.6,0h-0.9L102.6,47.3z M102.1,49.8L102.1,49.8h1.1c0.5,0,0.8,0,1-0.1
	c0.2-0.1,0.3-0.2,0.4-0.3c0.1-0.1,0.1-0.3,0.1-0.4c0-0.2-0.1-0.3-0.2-0.5c-0.1-0.1-0.4-0.2-0.7-0.2h-1.4L102.1,49.8z M100.7,50.7
	l1.1-5.7h2c0.4,0,0.7,0,0.9,0c0.3,0,0.5,0.1,0.7,0.2c0.2,0.1,0.3,0.3,0.5,0.5c0.1,0.2,0.2,0.4,0.2,0.7c0,0.3-0.1,0.6-0.3,0.8
	c-0.2,0.2-0.4,0.4-0.8,0.5c0.3,0.1,0.5,0.2,0.7,0.4c0.2,0.2,0.3,0.4,0.3,0.7c0,0.3-0.1,0.7-0.3,1c-0.2,0.3-0.5,0.5-0.8,0.7
	c-0.3,0.1-0.8,0.2-1.4,0.2H100.7z"/>
<path fill="#409147" d="M110,48.5L110,48.5l-0.4-2.3l-1.3,2.3H110z M110.1,49.5h-2.3l-0.7,1.3H106l3.2-5.7h1.3l1,5.7h-1.1
	L110.1,49.5z"/>
<path fill="#409147" d="M119,45.9L119,45.9h-1.7c-0.3,1.6-0.7,2.8-1.2,3.8h2.2L119,45.9z M116.4,45h4l-0.9,4.8h0.5l-0.5,2.5h-1
	l0.3-1.6h-3.7l-0.3,1.6h-1l0.5-2.5h0.5C115.5,48.7,116,47.1,116.4,45z"/>
<path fill="#409147" d="M122.2,45h4l-1.1,5.7h-1.2l0.9-4.8h-1.6l-0.6,3c-0.1,0.4-0.2,0.7-0.3,1c-0.1,0.3-0.3,0.5-0.5,0.6
	c-0.2,0.1-0.5,0.2-0.8,0.2c-0.2,0-0.5,0-0.8-0.1l0.2-1c0.2,0,0.3,0,0.4,0c0.3,0,0.5-0.3,0.6-0.8c0,0,0-0.1,0-0.1L122.2,45z"/>
<path fill="#409147" d="M130.8,45.9L130.8,45.9h-0.9c-0.6,0-1.1,0.1-1.3,0.2c-0.2,0.1-0.3,0.3-0.3,0.6c0,0.2,0.1,0.3,0.2,0.5
	c0.1,0.1,0.4,0.2,0.9,0.2h1.2L130.8,45.9z M132.2,45l-1.1,5.7h-1.2l0.5-2.4l-0.1,0c-0.3,0-0.6,0-0.8,0.1c-0.2,0.1-0.4,0.3-0.7,0.6
	l-1.4,1.7h-1.5l1.6-1.9c0.3-0.4,0.6-0.6,0.8-0.7c-0.4-0.1-0.7-0.2-0.9-0.5c-0.2-0.3-0.3-0.6-0.3-0.9c0-0.5,0.2-0.9,0.5-1.3
	c0.4-0.4,0.9-0.5,1.7-0.5H132.2z"/>
<path fill="#409147" d="M136.3,45h4l-1.1,5.7H138l0.9-4.8h-1.6l-0.6,3c-0.1,0.4-0.2,0.7-0.3,1c-0.1,0.3-0.3,0.5-0.5,0.6
	c-0.2,0.1-0.5,0.2-0.8,0.2c-0.2,0-0.5,0-0.8-0.1l0.2-1c0.2,0,0.3,0,0.4,0c0.3,0,0.5-0.3,0.6-0.8c0,0,0-0.1,0-0.1L136.3,45z"/>
<path fill="#409147" d="M144.3,48.4L144.3,48.4c0,0.4,0.1,0.8,0.4,1c0.2,0.3,0.6,0.4,0.9,0.4c0.5,0,0.9-0.2,1.3-0.7
	c0.3-0.5,0.5-1,0.5-1.8c0-0.5-0.1-0.9-0.4-1.1c-0.3-0.2-0.6-0.4-0.9-0.4c-0.5,0-0.9,0.3-1.3,0.8C144.4,47.1,144.3,47.7,144.3,48.4
	 M141.7,45h1.2l-0.5,2.4h0.9c0.1-0.8,0.5-1.4,1-1.8c0.5-0.5,1.1-0.7,1.9-0.7c0.7,0,1.3,0.2,1.7,0.6c0.4,0.4,0.7,1,0.7,1.8
	c0,0.9-0.2,1.7-0.7,2.4c-0.5,0.7-1.2,1-2.2,1c-0.8,0-1.4-0.2-1.8-0.7c-0.4-0.5-0.6-1-0.6-1.6c0,0,0-0.1,0-0.2h-0.9l-0.5,2.4h-1.2
	L141.7,45z"/>
<path fill="#409147" d="M150.4,49.8L150.4,49.8h1.2c0.3,0,0.6,0,0.8-0.1c0.2,0,0.3-0.1,0.4-0.3c0.1-0.2,0.2-0.3,0.2-0.5
	c0-0.2-0.1-0.3-0.2-0.5c-0.1-0.1-0.2-0.2-0.4-0.2c-0.2,0-0.4-0.1-0.7-0.1h-0.9L150.4,49.8z M151.2,45.9l-0.2,1.2h0.9
	c0.6,0,1,0,1.3,0.1c0.3,0.1,0.5,0.3,0.7,0.5c0.2,0.3,0.3,0.6,0.3,0.9c0,0.6-0.2,1-0.6,1.4c-0.4,0.4-1,0.5-1.7,0.5h-2.8l1.1-5.7h4.1
	l-0.2,1H151.2z"/>
<path fill="#409147" d="M161.6,45L161.6,45h1.2l-1.1,5.7h-1.2L161.6,45z M156.3,49.8L156.3,49.8h1.2c0.6,0,1-0.1,1.2-0.3
	c0.2-0.2,0.2-0.4,0.2-0.6c0-0.2-0.1-0.3-0.2-0.5c-0.1-0.1-0.2-0.2-0.4-0.3c-0.2,0-0.4-0.1-0.8-0.1h-0.9L156.3,49.8z M156,45h1.2
	l-0.4,2.2h0.9c0.6,0,1.1,0.1,1.4,0.2c0.3,0.1,0.5,0.3,0.7,0.5c0.2,0.3,0.2,0.6,0.2,0.9c0,0.6-0.2,1.1-0.6,1.4
	c-0.4,0.3-1,0.5-1.7,0.5h-2.8L156,45z"/>
<path fill="#409147" d="M164.1,50.7h-1.5l2.5-2.9l-1.5-2.8h1.2l0.6,1.1c0,0,0.2,0.3,0.4,0.8c0,0,0,0.1,0.1,0.1
	c0.3-0.4,0.6-0.7,0.8-1l0.9-1h1.5l-2.6,3l1.5,2.7h-1.3l-0.4-0.9c-0.2-0.5-0.4-0.8-0.5-1c-0.1,0.2-0.4,0.5-0.8,1L164.1,50.7z"/>
<path fill="#409147" d="M172.8,46.5l-1.1-0.3c0.2-0.5,0.4-0.9,0.8-1.1c0.4-0.2,0.8-0.3,1.3-0.3c0.5,0,1,0.1,1.4,0.4
	c0.4,0.3,0.6,0.6,0.6,1.1c0,0.3-0.1,0.6-0.3,0.9c-0.2,0.3-0.5,0.5-0.9,0.6c0.3,0.1,0.5,0.3,0.7,0.5c0.1,0.2,0.2,0.4,0.2,0.7
	c0,0.5-0.2,0.9-0.6,1.2c-0.4,0.3-1,0.5-1.7,0.5c-1.2,0-2-0.5-2.2-1.4l1.1-0.4c0,0.2,0.2,0.4,0.3,0.6c0.2,0.2,0.4,0.2,0.7,0.2
	c0.3,0,0.6-0.1,0.8-0.2c0.2-0.2,0.3-0.4,0.3-0.7c0-0.2-0.1-0.4-0.3-0.5c-0.2-0.1-0.4-0.2-0.7-0.2c-0.1,0-0.2,0-0.3,0l0.2-1
	c0.1,0,0.3,0,0.4,0c0.3,0,0.5-0.1,0.7-0.2c0.2-0.2,0.3-0.3,0.3-0.6c0-0.2-0.1-0.4-0.2-0.5c-0.2-0.1-0.3-0.2-0.5-0.2
	C173.3,45.9,173,46.1,172.8,46.5"/>
<path fill="#409147" d="M179.9,48.5L179.9,48.5l-0.4-2.3l-1.3,2.3H179.9z M180.1,49.5h-2.3l-0.7,1.3h-1.2l3.2-5.7h1.3l1,5.7h-1.1
	L180.1,49.5z"/>
<path fill="#409147" d="M186.9,45.9L186.9,45.9h-1.7c-0.3,1.6-0.7,2.8-1.2,3.8h2.2L186.9,45.9z M184.2,45h4l-0.9,4.8h0.5l-0.5,2.5
	h-1l0.3-1.6H183l-0.3,1.6h-1l0.5-2.5h0.5C183.4,48.7,183.9,47.1,184.2,45z"/>
<path fill="#409147" d="M192.2,48.5L192.2,48.5l-0.4-2.3l-1.3,2.3H192.2z M192.3,49.5H190l-0.7,1.3h-1.2l3.2-5.7h1.3l1,5.7h-1.1
	L192.3,49.5z"/>
<path fill="#409147" d="M195.2,45h1.2l-0.3,1.5c0,0,0,0,0,0.1c0,0.2-0.1,0.4-0.1,0.5c0,0.2,0.1,0.4,0.2,0.5c0.1,0.1,0.4,0.2,0.7,0.2
	c0.4,0,0.9-0.1,1.2-0.3l0.5-2.5h1.2l-1.1,5.7h-1.2l0.5-2.3c-0.6,0.2-1.1,0.3-1.5,0.3c-0.5,0-1-0.1-1.2-0.3c-0.3-0.2-0.4-0.5-0.4-0.9
	c0-0.2,0-0.5,0.1-0.9L195.2,45z"/>
<g>
</g>
<g>
</g>
<g>
</g>
<g>
</g>
<g>
</g>
<g>
</g>
</svg>
